<svg width="111" height="110" viewBox="0 0 111 110" fill="none" xmlns="http://www.w3.org/2000/svg">
<path fill-rule="evenodd" clip-rule="evenodd" d="M10.1103 86.7848C13.4778 91.4846 17.5723 95.6382 22.2313 99.0849L105.044 30.1666C102.4 25.0029 98.9569 20.3079 94.8761 16.2409L10.1103 86.7848ZM44.5676 108.944C38.8046 107.81 33.3628 105.794 28.3917 103.044L107.922 36.8567C109.785 42.1362 110.858 47.7827 111 53.6575L44.5676 108.944ZM54.2316 109.987C54.6391 109.996 55.0478 110 55.4575 110C83.3108 110 106.377 89.7097 110.396 63.2457L54.2316 109.987ZM89.5617 11.5781C83.9717 7.26935 77.5278 3.9952 70.5236 2.04625L0.181785 60.5862C0.920198 67.833 3.07969 74.6645 6.38017 80.8035L89.5617 11.5781ZM55.4575 0C57.5535 0 59.6225 0.114904 61.6582 0.338695L0 51.6519C1.74795 22.8353 25.9089 0 55.4575 0Z" fill="#4A7DB4"/>
</svg>
