<svg width="170" height="173" viewBox="0 0 170 173" fill="none" xmlns="http://www.w3.org/2000/svg">
<g filter="url(#filter0_d_145_2065)">
<path d="M164 73C164 112.68 128.719 145 85 145C41.2814 145 6 112.68 6 73C6 33.3197 41.2814 1 85 1C128.719 1 164 33.3197 164 73Z" fill="#4A7DB4" stroke="white" stroke-width="2"/>
<path d="M111.475 27.2928C111.475 41.2047 99.8311 52.5856 85.339 52.5856C70.8469 52.5856 59.2034 41.2047 59.2034 27.2928C59.2034 13.3809 70.8469 2 85.339 2C99.8311 2 111.475 13.3809 111.475 27.2928Z" stroke="white" stroke-width="4"/>
<path d="M38.8644 113.901C38.8644 88.4214 59.52 67.7657 85 67.7657C110.48 67.7657 131.136 88.4214 131.136 113.901V123.613H38.8644V113.901Z" stroke="#FFF9F9" stroke-width="4"/>
</g>
<defs>
<filter id="filter0_d_145_2065" x="0" y="0" width="170" height="173" filterUnits="userSpaceOnUse" color-interpolation-filters="sRGB">
<feFlood flood-opacity="0" result="BackgroundImageFix"/>
<feColorMatrix in="SourceAlpha" type="matrix" values="0 0 0 0 0 0 0 0 0 0 0 0 0 0 0 0 0 0 127 0" result="hardAlpha"/>
<feOffset dy="22"/>
<feGaussianBlur stdDeviation="2.5"/>
<feComposite in2="hardAlpha" operator="out"/>
<feColorMatrix type="matrix" values="0 0 0 0 0 0 0 0 0 0 0 0 0 0 0 0 0 0 0.25 0"/>
<feBlend mode="normal" in2="BackgroundImageFix" result="effect1_dropShadow_145_2065"/>
<feBlend mode="normal" in="SourceGraphic" in2="effect1_dropShadow_145_2065" result="shape"/>
</filter>
</defs>
</svg>
